<?xml version="1.0" encoding="utf-8"?>
<!-- Generator: Adobe Illustrator 16.0.0, SVG Export Plug-In . SVG Version: 6.00 Build 0)  -->
<!DOCTYPE svg PUBLIC "-//W3C//DTD SVG 1.1//EN" "http://www.w3.org/Graphics/SVG/1.1/DTD/svg11.dtd">
<svg version="1.1" id="Layer_1" xmlns="http://www.w3.org/2000/svg" xmlns:xlink="http://www.w3.org/1999/xlink" x="0px" y="0px"
	 width="411px" height="356px" viewBox="0 0 411 356" enable-background="new 0 0 411 356" xml:space="preserve">
<g id="logo">
	<polygon fill="#59A9DC" points="370.005,34.745 338.688,19.672 338.688,57.723 338.715,57.723 371.612,201.871 279.424,317.462 
		131.57,317.462 39.394,201.871 72.271,57.822 72.271,19.682 40.989,34.745 0.357,212.77 114.211,355.513 296.805,355.513 
		410.643,212.77 	"/>
	<polygon fill="#F3E243" points="309.523,96.244 289.729,86.715 289.729,110.776 289.729,110.776 310.533,201.926 252.248,275.019 
		158.761,275.019 100.469,201.926 121.26,110.839 121.26,86.724 101.48,96.244 75.787,208.814 147.762,299.089 263.231,299.089 
		335.225,208.814 	"/>
	<g>
		<rect x="174.863" y="0.487" fill="#ED3D7B" width="61.273" height="201.323"/>
		<g>
			<path fill="#F2F2F2" d="M205.5,49.228c-3.263,0-4.894-2.243-4.894-6.725c0-4.606,1.631-6.912,4.894-6.912
				s4.895,2.305,4.895,6.912C210.395,46.985,208.763,49.228,205.5,49.228z M205.5,47.508c1.956,0,2.933-1.668,2.933-5.006
				c0-3.462-0.977-5.192-2.933-5.192c-1.957,0-2.933,1.73-2.933,5.192C202.567,45.84,203.543,47.508,205.5,47.508z"/>
			<path fill="#F2F2F2" d="M201.278,71.994V58.731h1.794v13.263H201.278z M207.365,71.994l-4.108-10.087h-0.859v-3.176h1.233
				l4.11,10.087h0.466v3.176H207.365z M207.928,71.994V58.731h1.794v13.263H207.928z"/>
			<path fill="#F2F2F2" d="M201.39,94.948V81.684h1.867v13.264H201.39z M201.39,94.948v-1.776h8.779v1.776H201.39z"/>
			<path fill="#F2F2F2" d="M201.464,106.413v-1.775h8.07v1.775H201.464z M201.464,117.901v-1.775h8.07v1.775H201.464z
				 M204.556,117.901v-13.263h1.868v13.263H204.556z"/>
			<path fill="#F2F2F2" d="M201.278,140.853v-13.262h1.794v13.262H201.278z M207.365,140.853l-4.108-10.087h-0.859v-3.175h1.233
				l4.11,10.087h0.466v3.175H207.365z M207.928,140.853v-13.262h1.794v13.262H207.928z"/>
			<path fill="#F2F2F2" d="M201.39,163.806v-13.262h1.867v13.262H201.39z M201.39,152.32v-1.776h8.779v1.776H201.39z
				 M201.39,158.053v-1.773h7.098v1.773H201.39z M201.39,163.806v-1.774h8.779v1.774H201.39z"/>
		</g>
	</g>
</g>
</svg>
