<?xml version="1.0" encoding="utf-8"?>
<!-- Generator: Adobe Illustrator 16.0.0, SVG Export Plug-In . SVG Version: 6.00 Build 0)  -->
<!DOCTYPE svg PUBLIC "-//W3C//DTD SVG 1.1//EN" "http://www.w3.org/Graphics/SVG/1.1/DTD/svg11.dtd">
<svg version="1.1" id="Layer_1" xmlns="http://www.w3.org/2000/svg" xmlns:xlink="http://www.w3.org/1999/xlink" x="0px" y="0px"
	 width="512px" height="100px" viewBox="0 0 512 100" enable-background="new 0 0 512 100" xml:space="preserve">
<g>
	<g>
		<g>
			<path fill="none" stroke="#3687AE" stroke-width="2.25" stroke-miterlimit="10" d="M39.594,78.595L11.26,21.666h6.932
				l21.402,43.931l21.663-43.931h6.932L39.594,78.595z"/>
			<path fill="none" stroke="#AD9F35" stroke-width="2" stroke-miterlimit="10" d="M103.802,78.595L75.467,21.666h6.932
				l21.403,43.931l21.662-43.931h6.932L103.802,78.595z"/>
			<g>
				<path fill="none" stroke="#A23B64" stroke-width="1.75" stroke-miterlimit="10" d="M134.476,48.701
					c0-3.754,0.721-7.293,2.167-10.615c1.442-3.321,3.393-6.209,5.849-8.665c2.454-2.455,5.357-4.405,8.708-5.849
					c3.349-1.443,6.931-2.167,10.744-2.167c2.773,0,5.429,0.39,7.972,1.17c2.541,0.78,4.881,1.893,7.019,3.336
					c2.136,1.445,4.057,3.149,5.762,5.112c1.703,1.964,3.104,4.102,4.203,6.412l-4.853,3.12c-0.866-1.906-1.979-3.668-3.335-5.286
					c-1.358-1.617-2.903-3.033-4.635-4.246c-1.733-1.213-3.627-2.151-5.677-2.816c-2.049-0.663-4.173-0.997-6.369-0.997
					c-2.945,0-5.749,0.594-8.404,1.776c-2.658,1.185-4.969,2.76-6.932,4.723c-1.965,1.964-3.524,4.261-4.68,6.889
					c-1.156,2.629-1.732,5.359-1.732,8.188c0,2.889,0.577,5.619,1.732,8.188c1.155,2.571,2.715,4.839,4.68,6.803
					c1.962,1.964,4.258,3.523,6.888,4.679c2.629,1.156,5.417,1.733,8.362,1.733c2.021,0,3.985-0.273,5.893-0.823
					c1.906-0.549,3.682-1.313,5.329-2.296c1.646-0.982,3.147-2.152,4.505-3.51c1.356-1.356,2.498-2.873,3.424-4.549l4.159,4.244
					c-2.427,3.814-5.647,6.89-9.663,9.229c-4.015,2.34-8.564,3.509-13.647,3.509c-3.813,0-7.395-0.722-10.744-2.165
					c-3.351-1.444-6.254-3.395-8.708-5.85c-2.456-2.454-4.406-5.342-5.849-8.665C135.196,55.995,134.476,52.455,134.476,48.701z"/>
				<rect x="159.084" y="47.487" fill="#A23B64" width="25.909" height="5.458"/>
			</g>
			<path fill="none" stroke="#61BB94" stroke-width="1.25" stroke-miterlimit="10" d="M203.926,54.853
				c0.605,1.964,1.458,3.799,2.556,5.502c1.097,1.704,2.412,3.25,3.942,4.637c1.53,1.385,3.22,2.512,5.07,3.379l-3.813,4.765
				c-2.196-1.154-4.189-2.584-5.979-4.289c-1.791-1.704-3.307-3.624-4.549-5.761c-1.242-2.138-2.209-4.42-2.902-6.847
				c-0.693-2.426-1.04-4.938-1.04-7.538c0-3.754,0.722-7.293,2.166-10.615c1.444-3.321,3.394-6.209,5.85-8.665
				c2.454-2.455,5.356-4.405,8.708-5.849c3.35-1.443,6.933-2.167,10.744-2.167c3.813,0,7.395,0.724,10.744,2.167
				c3.35,1.444,6.253,3.394,8.708,5.849c2.456,2.456,4.405,5.343,5.849,8.665c1.443,3.322,2.167,6.86,2.167,10.615
				c0,2.657-0.361,5.213-1.083,7.667c-0.723,2.456-1.748,4.737-3.075,6.846c-1.33,2.109-2.917,4.017-4.767,5.719
				c-1.85,1.705-3.899,3.106-6.151,4.202l-3.207-4.852c1.79-0.867,3.467-1.979,5.027-3.336c1.56-1.356,2.887-2.889,3.985-4.593
				c1.096-1.703,1.964-3.538,2.6-5.502c0.636-1.963,0.954-3.986,0.954-6.066c0-2.83-0.578-5.559-1.734-8.188
				c-1.156-2.627-2.715-4.924-4.679-6.889c-1.964-1.963-4.26-3.538-6.889-4.723c-2.629-1.182-5.415-1.776-8.361-1.776
				c-2.947,0-5.748,0.594-8.406,1.776c-2.658,1.185-4.969,2.76-6.931,4.723c-1.966,1.964-3.525,4.261-4.679,6.889
				c-1.157,2.629-1.734,5.359-1.734,8.188C203.015,50.866,203.32,52.89,203.926,54.853z"/>
			<path fill="none" stroke="#61BB94" stroke-width="1.25" stroke-miterlimit="10" d="M263.149,75.735v-54.07h10.139l34.225,48.957
				V21.666h6.066v54.07h-9.532l-34.833-49.043v49.043H263.149z"/>
			<path fill="none" stroke="#61BB94" stroke-width="1.25" stroke-miterlimit="10" d="M325.71,75.735v-54.07h6.064v48.61h35.094
				v5.46H325.71z"/>
			<path fill="none" stroke="#61BB94" stroke-width="1.25" stroke-miterlimit="10" d="M378.738,75.735v-54.07h6.153v54.07H378.738z"
				/>
			<path fill="none" stroke="#61BB94" stroke-width="1.25" stroke-miterlimit="10" d="M397.021,75.735v-54.07h10.139l34.226,48.957
				V21.666h6.066v54.07h-9.531l-34.834-49.043v49.043H397.021z"/>
			<path fill="none" stroke="#61BB94" stroke-width="1.25" stroke-miterlimit="10" d="M459.581,75.735v-54.07h41.159v5.459h-35.094
				v43.151h35.094v5.46H459.581z M500.047,47.487v5.458h-25.91v-5.458H500.047z"/>
		</g>
		<g>
			<path fill="none" stroke="#3687AE" stroke-width="2.25" stroke-miterlimit="10" d="M39.594,78.595L11.26,21.666h6.932
				l21.402,43.931l21.663-43.931h6.932L39.594,78.595z"/>
			<path fill="none" stroke="#AD9F35" stroke-width="2" stroke-miterlimit="10" d="M103.802,78.595L75.467,21.666h6.932
				l21.403,43.931l21.662-43.931h6.932L103.802,78.595z"/>
			<g>
				<path fill="none" stroke="#A23B64" stroke-width="1.75" stroke-miterlimit="10" d="M134.476,48.701
					c0-3.754,0.721-7.293,2.167-10.615c1.442-3.321,3.393-6.209,5.849-8.665c2.454-2.455,5.357-4.405,8.708-5.849
					c3.349-1.443,6.931-2.167,10.744-2.167c2.773,0,5.429,0.39,7.972,1.17c2.541,0.78,4.881,1.893,7.019,3.336
					c2.136,1.445,4.057,3.149,5.762,5.112c1.703,1.964,3.104,4.102,4.203,6.412l-4.853,3.12c-0.866-1.906-1.979-3.668-3.335-5.286
					c-1.358-1.617-2.903-3.033-4.635-4.246c-1.733-1.213-3.627-2.151-5.677-2.816c-2.049-0.663-4.173-0.997-6.369-0.997
					c-2.945,0-5.749,0.594-8.404,1.776c-2.658,1.185-4.969,2.76-6.932,4.723c-1.965,1.964-3.524,4.261-4.68,6.889
					c-1.156,2.629-1.732,5.359-1.732,8.188c0,2.889,0.577,5.619,1.732,8.188c1.155,2.571,2.715,4.839,4.68,6.803
					c1.962,1.964,4.258,3.523,6.888,4.679c2.629,1.156,5.417,1.733,8.362,1.733c2.021,0,3.985-0.273,5.893-0.823
					c1.906-0.549,3.682-1.313,5.329-2.296c1.646-0.982,3.147-2.152,4.505-3.51c1.356-1.356,2.498-2.873,3.424-4.549l4.159,4.244
					c-2.427,3.814-5.647,6.89-9.663,9.229c-4.015,2.34-8.564,3.509-13.647,3.509c-3.813,0-7.395-0.722-10.744-2.165
					c-3.351-1.444-6.254-3.395-8.708-5.85c-2.456-2.454-4.406-5.342-5.849-8.665C135.196,55.995,134.476,52.455,134.476,48.701z"/>
				<rect x="159.084" y="47.487" fill="#A23B64" width="25.909" height="5.458"/>
			</g>
			<path fill="none" stroke="#61BB94" stroke-width="1.25" stroke-miterlimit="10" d="M203.926,54.853
				c0.605,1.964,1.458,3.799,2.556,5.502c1.097,1.704,2.412,3.25,3.942,4.637c1.53,1.385,3.22,2.512,5.07,3.379l-3.813,4.765
				c-2.196-1.154-4.189-2.584-5.979-4.289c-1.791-1.704-3.307-3.624-4.549-5.761c-1.242-2.138-2.209-4.42-2.902-6.847
				c-0.693-2.426-1.04-4.938-1.04-7.538c0-3.754,0.722-7.293,2.166-10.615c1.444-3.321,3.394-6.209,5.85-8.665
				c2.454-2.455,5.356-4.405,8.708-5.849c3.35-1.443,6.933-2.167,10.744-2.167c3.813,0,7.395,0.724,10.744,2.167
				c3.35,1.444,6.253,3.394,8.708,5.849c2.456,2.456,4.405,5.343,5.849,8.665c1.443,3.322,2.167,6.86,2.167,10.615
				c0,2.657-0.361,5.213-1.083,7.667c-0.723,2.456-1.748,4.737-3.075,6.846c-1.33,2.109-2.917,4.017-4.767,5.719
				c-1.85,1.705-3.899,3.106-6.151,4.202l-3.207-4.852c1.79-0.867,3.467-1.979,5.027-3.336c1.56-1.356,2.887-2.889,3.985-4.593
				c1.096-1.703,1.964-3.538,2.6-5.502c0.636-1.963,0.954-3.986,0.954-6.066c0-2.83-0.578-5.559-1.734-8.188
				c-1.156-2.627-2.715-4.924-4.679-6.889c-1.964-1.963-4.26-3.538-6.889-4.723c-2.629-1.182-5.415-1.776-8.361-1.776
				c-2.947,0-5.748,0.594-8.406,1.776c-2.658,1.185-4.969,2.76-6.931,4.723c-1.966,1.964-3.525,4.261-4.679,6.889
				c-1.157,2.629-1.734,5.359-1.734,8.188C203.015,50.866,203.32,52.89,203.926,54.853z"/>
			<path fill="none" stroke="#61BB94" stroke-width="1.25" stroke-miterlimit="10" d="M263.149,75.735v-54.07h10.139l34.225,48.957
				V21.666h6.066v54.07h-9.532l-34.833-49.043v49.043H263.149z"/>
			<path fill="none" stroke="#61BB94" stroke-width="1.25" stroke-miterlimit="10" d="M325.71,75.735v-54.07h6.064v48.61h35.094
				v5.46H325.71z"/>
			<path fill="none" stroke="#61BB94" stroke-width="1.25" stroke-miterlimit="10" d="M378.738,75.735v-54.07h6.153v54.07H378.738z"
				/>
			<path fill="none" stroke="#61BB94" stroke-width="1.25" stroke-miterlimit="10" d="M397.021,75.735v-54.07h10.139l34.226,48.957
				V21.666h6.066v54.07h-9.531l-34.834-49.043v49.043H397.021z"/>
			<path fill="none" stroke="#61BB94" stroke-width="1.25" stroke-miterlimit="10" d="M459.581,75.735v-54.07h41.159v5.459h-35.094
				v43.151h35.094v5.46H459.581z M500.047,47.487v5.458h-25.91v-5.458H500.047z"/>
		</g>
		<g>
			<path fill="none" stroke="#3687AE" stroke-width="2.25" stroke-miterlimit="10" d="M39.594,78.595L11.26,21.666h6.932
				l21.402,43.931l21.663-43.931h6.932L39.594,78.595z"/>
			<path fill="none" stroke="#AD9F35" stroke-width="2" stroke-miterlimit="10" d="M103.802,78.595L75.467,21.666h6.932
				l21.403,43.931l21.662-43.931h6.932L103.802,78.595z"/>
			<g>
				<path fill="none" stroke="#A23B64" stroke-width="1.75" stroke-miterlimit="10" d="M134.476,48.701
					c0-3.754,0.721-7.293,2.167-10.615c1.442-3.321,3.393-6.209,5.849-8.665c2.454-2.455,5.357-4.405,8.708-5.849
					c3.349-1.443,6.931-2.167,10.744-2.167c2.773,0,5.429,0.39,7.972,1.17c2.541,0.78,4.881,1.893,7.019,3.336
					c2.136,1.445,4.057,3.149,5.762,5.112c1.703,1.964,3.104,4.102,4.203,6.412l-4.853,3.12c-0.866-1.906-1.979-3.668-3.335-5.286
					c-1.358-1.617-2.903-3.033-4.635-4.246c-1.733-1.213-3.627-2.151-5.677-2.816c-2.049-0.663-4.173-0.997-6.369-0.997
					c-2.945,0-5.749,0.594-8.404,1.776c-2.658,1.185-4.969,2.76-6.932,4.723c-1.965,1.964-3.524,4.261-4.68,6.889
					c-1.156,2.629-1.732,5.359-1.732,8.188c0,2.889,0.577,5.619,1.732,8.188c1.155,2.571,2.715,4.839,4.68,6.803
					c1.962,1.964,4.258,3.523,6.888,4.679c2.629,1.156,5.417,1.733,8.362,1.733c2.021,0,3.985-0.273,5.893-0.823
					c1.906-0.549,3.682-1.313,5.329-2.296c1.646-0.982,3.147-2.152,4.505-3.51c1.356-1.356,2.498-2.873,3.424-4.549l4.159,4.244
					c-2.427,3.814-5.647,6.89-9.663,9.229c-4.015,2.34-8.564,3.509-13.647,3.509c-3.813,0-7.395-0.722-10.744-2.165
					c-3.351-1.444-6.254-3.395-8.708-5.85c-2.456-2.454-4.406-5.342-5.849-8.665C135.196,55.995,134.476,52.455,134.476,48.701z"/>
				<rect x="159.084" y="47.487" fill="#A23B64" width="25.909" height="5.458"/>
			</g>
			<path fill="none" stroke="#61BB94" stroke-width="1.25" stroke-miterlimit="10" d="M203.926,54.853
				c0.605,1.964,1.458,3.799,2.556,5.502c1.097,1.704,2.412,3.25,3.942,4.637c1.53,1.385,3.22,2.512,5.07,3.379l-3.813,4.765
				c-2.196-1.154-4.189-2.584-5.979-4.289c-1.791-1.704-3.307-3.624-4.549-5.761c-1.242-2.138-2.209-4.42-2.902-6.847
				c-0.693-2.426-1.04-4.938-1.04-7.538c0-3.754,0.722-7.293,2.166-10.615c1.444-3.321,3.394-6.209,5.85-8.665
				c2.454-2.455,5.356-4.405,8.708-5.849c3.35-1.443,6.933-2.167,10.744-2.167c3.813,0,7.395,0.724,10.744,2.167
				c3.35,1.444,6.253,3.394,8.708,5.849c2.456,2.456,4.405,5.343,5.849,8.665c1.443,3.322,2.167,6.86,2.167,10.615
				c0,2.657-0.361,5.213-1.083,7.667c-0.723,2.456-1.748,4.737-3.075,6.846c-1.33,2.109-2.917,4.017-4.767,5.719
				c-1.85,1.705-3.899,3.106-6.151,4.202l-3.207-4.852c1.79-0.867,3.467-1.979,5.027-3.336c1.56-1.356,2.887-2.889,3.985-4.593
				c1.096-1.703,1.964-3.538,2.6-5.502c0.636-1.963,0.954-3.986,0.954-6.066c0-2.83-0.578-5.559-1.734-8.188
				c-1.156-2.627-2.715-4.924-4.679-6.889c-1.964-1.963-4.26-3.538-6.889-4.723c-2.629-1.182-5.415-1.776-8.361-1.776
				c-2.947,0-5.748,0.594-8.406,1.776c-2.658,1.185-4.969,2.76-6.931,4.723c-1.966,1.964-3.525,4.261-4.679,6.889
				c-1.157,2.629-1.734,5.359-1.734,8.188C203.015,50.866,203.32,52.89,203.926,54.853z"/>
			<path fill="none" stroke="#61BB94" stroke-width="1.25" stroke-miterlimit="10" d="M263.149,75.735v-54.07h10.139l34.225,48.957
				V21.666h6.066v54.07h-9.532l-34.833-49.043v49.043H263.149z"/>
			<path fill="none" stroke="#61BB94" stroke-width="1.25" stroke-miterlimit="10" d="M325.71,75.735v-54.07h6.064v48.61h35.094
				v5.46H325.71z"/>
			<path fill="none" stroke="#61BB94" stroke-width="1.25" stroke-miterlimit="10" d="M378.738,75.735v-54.07h6.153v54.07H378.738z"
				/>
			<path fill="none" stroke="#61BB94" stroke-width="1.25" stroke-miterlimit="10" d="M397.021,75.735v-54.07h10.139l34.226,48.957
				V21.666h6.066v54.07h-9.531l-34.834-49.043v49.043H397.021z"/>
			<path fill="none" stroke="#61BB94" stroke-width="1.25" stroke-miterlimit="10" d="M459.581,75.735v-54.07h41.159v5.459h-35.094
				v43.151h35.094v5.46H459.581z M500.047,47.487v5.458h-25.91v-5.458H500.047z"/>
		</g>
		<g>
			<path fill="none" stroke="#3687AE" stroke-width="2.25" stroke-miterlimit="10" d="M39.594,78.595L11.26,21.666h6.932
				l21.402,43.931l21.663-43.931h6.932L39.594,78.595z"/>
			<path fill="none" stroke="#AD9F35" stroke-width="2" stroke-miterlimit="10" d="M103.802,78.595L75.467,21.666h6.932
				l21.403,43.931l21.662-43.931h6.932L103.802,78.595z"/>
			<g>
				<path fill="none" stroke="#A23B64" stroke-width="1.75" stroke-miterlimit="10" d="M134.476,48.701
					c0-3.754,0.721-7.293,2.167-10.615c1.442-3.321,3.393-6.209,5.849-8.665c2.454-2.455,5.357-4.405,8.708-5.849
					c3.349-1.443,6.931-2.167,10.744-2.167c2.773,0,5.429,0.39,7.972,1.17c2.541,0.78,4.881,1.893,7.019,3.336
					c2.136,1.445,4.057,3.149,5.762,5.112c1.703,1.964,3.104,4.102,4.203,6.412l-4.853,3.12c-0.866-1.906-1.979-3.668-3.335-5.286
					c-1.358-1.617-2.903-3.033-4.635-4.246c-1.733-1.213-3.627-2.151-5.677-2.816c-2.049-0.663-4.173-0.997-6.369-0.997
					c-2.945,0-5.749,0.594-8.404,1.776c-2.658,1.185-4.969,2.76-6.932,4.723c-1.965,1.964-3.524,4.261-4.68,6.889
					c-1.156,2.629-1.732,5.359-1.732,8.188c0,2.889,0.577,5.619,1.732,8.188c1.155,2.571,2.715,4.839,4.68,6.803
					c1.962,1.964,4.258,3.523,6.888,4.679c2.629,1.156,5.417,1.733,8.362,1.733c2.021,0,3.985-0.273,5.893-0.823
					c1.906-0.549,3.682-1.313,5.329-2.296c1.646-0.982,3.147-2.152,4.505-3.51c1.356-1.356,2.498-2.873,3.424-4.549l4.159,4.244
					c-2.427,3.814-5.647,6.89-9.663,9.229c-4.015,2.34-8.564,3.509-13.647,3.509c-3.813,0-7.395-0.722-10.744-2.165
					c-3.351-1.444-6.254-3.395-8.708-5.85c-2.456-2.454-4.406-5.342-5.849-8.665C135.196,55.995,134.476,52.455,134.476,48.701z"/>
				<rect x="159.084" y="47.487" fill="#A23B64" width="25.909" height="5.458"/>
			</g>
			<path fill="none" stroke="#61BB94" stroke-width="1.25" stroke-miterlimit="10" d="M203.926,54.853
				c0.605,1.964,1.458,3.799,2.556,5.502c1.097,1.704,2.412,3.25,3.942,4.637c1.53,1.385,3.22,2.512,5.07,3.379l-3.813,4.765
				c-2.196-1.154-4.189-2.584-5.979-4.289c-1.791-1.704-3.307-3.624-4.549-5.761c-1.242-2.138-2.209-4.42-2.902-6.847
				c-0.693-2.426-1.04-4.938-1.04-7.538c0-3.754,0.722-7.293,2.166-10.615c1.444-3.321,3.394-6.209,5.85-8.665
				c2.454-2.455,5.356-4.405,8.708-5.849c3.35-1.443,6.933-2.167,10.744-2.167c3.813,0,7.395,0.724,10.744,2.167
				c3.35,1.444,6.253,3.394,8.708,5.849c2.456,2.456,4.405,5.343,5.849,8.665c1.443,3.322,2.167,6.86,2.167,10.615
				c0,2.657-0.361,5.213-1.083,7.667c-0.723,2.456-1.748,4.737-3.075,6.846c-1.33,2.109-2.917,4.017-4.767,5.719
				c-1.85,1.705-3.899,3.106-6.151,4.202l-3.207-4.852c1.79-0.867,3.467-1.979,5.027-3.336c1.56-1.356,2.887-2.889,3.985-4.593
				c1.096-1.703,1.964-3.538,2.6-5.502c0.636-1.963,0.954-3.986,0.954-6.066c0-2.83-0.578-5.559-1.734-8.188
				c-1.156-2.627-2.715-4.924-4.679-6.889c-1.964-1.963-4.26-3.538-6.889-4.723c-2.629-1.182-5.415-1.776-8.361-1.776
				c-2.947,0-5.748,0.594-8.406,1.776c-2.658,1.185-4.969,2.76-6.931,4.723c-1.966,1.964-3.525,4.261-4.679,6.889
				c-1.157,2.629-1.734,5.359-1.734,8.188C203.015,50.866,203.32,52.89,203.926,54.853z"/>
			<path fill="none" stroke="#61BB94" stroke-width="1.25" stroke-miterlimit="10" d="M263.149,75.735v-54.07h10.139l34.225,48.957
				V21.666h6.066v54.07h-9.532l-34.833-49.043v49.043H263.149z"/>
			<path fill="none" stroke="#61BB94" stroke-width="1.25" stroke-miterlimit="10" d="M325.71,75.735v-54.07h6.064v48.61h35.094
				v5.46H325.71z"/>
			<path fill="none" stroke="#61BB94" stroke-width="1.25" stroke-miterlimit="10" d="M378.738,75.735v-54.07h6.153v54.07H378.738z"
				/>
			<path fill="none" stroke="#61BB94" stroke-width="1.25" stroke-miterlimit="10" d="M397.021,75.735v-54.07h10.139l34.226,48.957
				V21.666h6.066v54.07h-9.531l-34.834-49.043v49.043H397.021z"/>
			<path fill="none" stroke="#61BB94" stroke-width="1.25" stroke-miterlimit="10" d="M459.581,75.735v-54.07h41.159v5.459h-35.094
				v43.151h35.094v5.46H459.581z M500.047,47.487v5.458h-25.91v-5.458H500.047z"/>
		</g>
		<path fill="none" stroke="#5CBFEC" stroke-width="2.25" stroke-miterlimit="10" d="M39.594,78.595L11.26,21.666h6.932
			l21.402,43.931l21.663-43.931h6.932L39.594,78.595z"/>
		<path fill="none" stroke="#F9E54F" stroke-width="2" stroke-miterlimit="10" d="M103.802,78.595L75.467,21.666h6.932
			l21.403,43.931l21.662-43.931h6.932L103.802,78.595z"/>
		<path fill="none" stroke="#EE5692" stroke-miterlimit="10" d="M134.476,48.701c0-3.754,0.721-7.293,2.167-10.615
			c1.442-3.321,3.393-6.209,5.849-8.665c2.454-2.455,5.357-4.405,8.708-5.849c3.349-1.443,6.931-2.167,10.744-2.167
			c2.773,0,5.429,0.39,7.972,1.17c2.541,0.78,4.881,1.893,7.019,3.336c2.136,1.445,4.057,3.149,5.762,5.112
			c1.703,1.964,3.104,4.102,4.203,6.412l-4.853,3.12c-0.866-1.906-1.979-3.668-3.335-5.286c-1.358-1.617-2.903-3.033-4.635-4.246
			c-1.733-1.213-3.627-2.151-5.677-2.816c-2.049-0.663-4.173-0.997-6.369-0.997c-2.945,0-5.749,0.594-8.404,1.776
			c-2.658,1.185-4.969,2.76-6.932,4.723c-1.965,1.964-3.524,4.261-4.68,6.889c-1.156,2.629-1.732,5.359-1.732,8.188
			c0,2.889,0.577,5.619,1.732,8.188c1.155,2.571,2.715,4.839,4.68,6.803c1.962,1.964,4.258,3.523,6.888,4.679
			c2.629,1.156,5.417,1.733,8.362,1.733c2.021,0,3.985-0.273,5.893-0.823c1.906-0.549,3.682-1.313,5.329-2.296
			c1.646-0.982,3.147-2.152,4.505-3.51c1.356-1.356,2.498-2.873,3.424-4.549l4.159,4.244c-2.427,3.814-5.647,6.89-9.663,9.229
			c-4.015,2.34-8.564,3.509-13.647,3.509c-3.813,0-7.395-0.722-10.744-2.165c-3.351-1.444-6.254-3.395-8.708-5.85
			c-2.456-2.454-4.406-5.342-5.849-8.665C135.196,55.995,134.476,52.455,134.476,48.701z"/>
		<rect x="159.084" y="47.487" fill="#EE5692" width="25.909" height="5.458"/>
		<path fill="none" stroke="#61BB94" stroke-width="1.25" stroke-miterlimit="10" d="M203.926,54.853
			c0.605,1.964,1.458,3.799,2.556,5.502c1.097,1.704,2.412,3.25,3.942,4.637c1.53,1.385,3.22,2.512,5.07,3.379l-3.813,4.765
			c-2.196-1.154-4.189-2.584-5.979-4.289c-1.791-1.704-3.307-3.624-4.549-5.761c-1.242-2.138-2.209-4.42-2.902-6.847
			c-0.693-2.426-1.04-4.938-1.04-7.538c0-3.754,0.722-7.293,2.166-10.615c1.444-3.321,3.394-6.209,5.85-8.665
			c2.454-2.455,5.356-4.405,8.708-5.849c3.35-1.443,6.933-2.167,10.744-2.167c3.813,0,7.395,0.724,10.744,2.167
			c3.35,1.444,6.253,3.394,8.708,5.849c2.456,2.456,4.405,5.343,5.849,8.665c1.443,3.322,2.167,6.86,2.167,10.615
			c0,2.657-0.361,5.213-1.083,7.667c-0.723,2.456-1.748,4.737-3.075,6.846c-1.33,2.109-2.917,4.017-4.767,5.719
			c-1.85,1.705-3.899,3.106-6.151,4.202l-3.207-4.852c1.79-0.867,3.467-1.979,5.027-3.336c1.56-1.356,2.887-2.889,3.985-4.593
			c1.096-1.703,1.964-3.538,2.6-5.502c0.636-1.963,0.954-3.986,0.954-6.066c0-2.83-0.578-5.559-1.734-8.188
			c-1.156-2.627-2.715-4.924-4.679-6.889c-1.964-1.963-4.26-3.538-6.889-4.723c-2.629-1.182-5.415-1.776-8.361-1.776
			c-2.947,0-5.748,0.594-8.406,1.776c-2.658,1.185-4.969,2.76-6.931,4.723c-1.966,1.964-3.525,4.261-4.679,6.889
			c-1.157,2.629-1.734,5.359-1.734,8.188C203.015,50.866,203.32,52.89,203.926,54.853z"/>
		<path fill="none" stroke="#61BB94" stroke-width="1.25" stroke-miterlimit="10" d="M263.149,75.735v-54.07h10.139l34.225,48.957
			V21.666h6.066v54.07h-9.532l-34.833-49.043v49.043H263.149z"/>
		<path fill="none" stroke="#61BB94" stroke-width="1.25" stroke-miterlimit="10" d="M325.71,75.735v-54.07h6.064v48.61h35.094v5.46
			H325.71z"/>
		<path fill="none" stroke="#61BB94" stroke-width="1.25" stroke-miterlimit="10" d="M378.738,75.735v-54.07h6.153v54.07H378.738z"
			/>
		<path fill="none" stroke="#61BB94" stroke-width="1.25" stroke-miterlimit="10" d="M397.021,75.735v-54.07h10.139l34.226,48.957
			V21.666h6.066v54.07h-9.531l-34.834-49.043v49.043H397.021z"/>
		<path fill="none" stroke="#61BB94" stroke-width="1.25" stroke-miterlimit="10" d="M459.581,75.735v-54.07h41.159v5.459h-35.094
			v43.151h35.094v5.46H459.581z M500.047,47.487v5.458h-25.91v-5.458H500.047z"/>
	</g>
	<g>
		<g>
			<path fill="none" stroke="#3687AE" stroke-width="2.25" stroke-miterlimit="10" d="M39.594,78.595L11.26,21.666h6.932
				l21.402,43.931l21.663-43.931h6.932L39.594,78.595z"/>
			<path fill="none" stroke="#AD9F35" stroke-width="2" stroke-miterlimit="10" d="M103.802,78.595L75.467,21.666h6.932
				l21.403,43.931l21.662-43.931h6.932L103.802,78.595z"/>
			<g>
				<path fill="none" stroke="#A23B64" stroke-width="1.75" stroke-miterlimit="10" d="M134.476,48.701
					c0-3.754,0.721-7.293,2.167-10.615c1.442-3.321,3.393-6.209,5.849-8.665c2.454-2.455,5.357-4.405,8.708-5.849
					c3.349-1.443,6.931-2.167,10.744-2.167c2.773,0,5.429,0.39,7.972,1.17c2.541,0.78,4.881,1.893,7.019,3.336
					c2.136,1.445,4.057,3.149,5.762,5.112c1.703,1.964,3.104,4.102,4.203,6.412l-4.853,3.12c-0.866-1.906-1.979-3.668-3.335-5.286
					c-1.358-1.617-2.903-3.033-4.635-4.246c-1.733-1.213-3.627-2.151-5.677-2.816c-2.049-0.663-4.173-0.997-6.369-0.997
					c-2.945,0-5.749,0.594-8.404,1.776c-2.658,1.185-4.969,2.76-6.932,4.723c-1.965,1.964-3.524,4.261-4.68,6.889
					c-1.156,2.629-1.732,5.359-1.732,8.188c0,2.889,0.577,5.619,1.732,8.188c1.155,2.571,2.715,4.839,4.68,6.803
					c1.962,1.964,4.258,3.523,6.888,4.679c2.629,1.156,5.417,1.733,8.362,1.733c2.021,0,3.985-0.273,5.893-0.823
					c1.906-0.549,3.682-1.313,5.329-2.296c1.646-0.982,3.147-2.152,4.505-3.51c1.356-1.356,2.498-2.873,3.424-4.549l4.159,4.244
					c-2.427,3.814-5.647,6.89-9.663,9.229c-4.015,2.34-8.564,3.509-13.647,3.509c-3.813,0-7.395-0.722-10.744-2.165
					c-3.351-1.444-6.254-3.395-8.708-5.85c-2.456-2.454-4.406-5.342-5.849-8.665C135.196,55.995,134.476,52.455,134.476,48.701z"/>
				<rect x="159.084" y="47.487" fill="#A23B64" width="25.909" height="5.458"/>
			</g>
			<path fill="none" stroke="#61BB94" stroke-width="1.25" stroke-miterlimit="10" d="M203.926,54.853
				c0.605,1.964,1.458,3.799,2.556,5.502c1.097,1.704,2.412,3.25,3.942,4.637c1.53,1.385,3.22,2.512,5.07,3.379l-3.813,4.765
				c-2.196-1.154-4.189-2.584-5.979-4.289c-1.791-1.704-3.307-3.624-4.549-5.761c-1.242-2.138-2.209-4.42-2.902-6.847
				c-0.693-2.426-1.04-4.938-1.04-7.538c0-3.754,0.722-7.293,2.166-10.615c1.444-3.321,3.394-6.209,5.85-8.665
				c2.454-2.455,5.356-4.405,8.708-5.849c3.35-1.443,6.933-2.167,10.744-2.167c3.813,0,7.395,0.724,10.744,2.167
				c3.35,1.444,6.253,3.394,8.708,5.849c2.456,2.456,4.405,5.343,5.849,8.665c1.443,3.322,2.167,6.86,2.167,10.615
				c0,2.657-0.361,5.213-1.083,7.667c-0.723,2.456-1.748,4.737-3.075,6.846c-1.33,2.109-2.917,4.017-4.767,5.719
				c-1.85,1.705-3.899,3.106-6.151,4.202l-3.207-4.852c1.79-0.867,3.467-1.979,5.027-3.336c1.56-1.356,2.887-2.889,3.985-4.593
				c1.096-1.703,1.964-3.538,2.6-5.502c0.636-1.963,0.954-3.986,0.954-6.066c0-2.83-0.578-5.559-1.734-8.188
				c-1.156-2.627-2.715-4.924-4.679-6.889c-1.964-1.963-4.26-3.538-6.889-4.723c-2.629-1.182-5.415-1.776-8.361-1.776
				c-2.947,0-5.748,0.594-8.406,1.776c-2.658,1.185-4.969,2.76-6.931,4.723c-1.966,1.964-3.525,4.261-4.679,6.889
				c-1.157,2.629-1.734,5.359-1.734,8.188C203.015,50.866,203.32,52.89,203.926,54.853z"/>
			<path fill="none" stroke="#61BB94" stroke-width="1.25" stroke-miterlimit="10" d="M263.149,75.735v-54.07h10.139l34.225,48.957
				V21.666h6.066v54.07h-9.532l-34.833-49.043v49.043H263.149z"/>
			<path fill="none" stroke="#61BB94" stroke-width="1.25" stroke-miterlimit="10" d="M325.71,75.735v-54.07h6.064v48.61h35.094
				v5.46H325.71z"/>
			<path fill="none" stroke="#61BB94" stroke-width="1.25" stroke-miterlimit="10" d="M378.738,75.735v-54.07h6.153v54.07H378.738z"
				/>
			<path fill="none" stroke="#61BB94" stroke-width="1.25" stroke-miterlimit="10" d="M397.021,75.735v-54.07h10.139l34.226,48.957
				V21.666h6.066v54.07h-9.531l-34.834-49.043v49.043H397.021z"/>
			<path fill="none" stroke="#61BB94" stroke-width="1.25" stroke-miterlimit="10" d="M459.581,75.735v-54.07h41.159v5.459h-35.094
				v43.151h35.094v5.46H459.581z M500.047,47.487v5.458h-25.91v-5.458H500.047z"/>
		</g>
		<g>
			<path fill="none" stroke="#3687AE" stroke-width="2.25" stroke-miterlimit="10" d="M39.594,78.595L11.26,21.666h6.932
				l21.402,43.931l21.663-43.931h6.932L39.594,78.595z"/>
			<path fill="none" stroke="#AD9F35" stroke-width="2" stroke-miterlimit="10" d="M103.802,78.595L75.467,21.666h6.932
				l21.403,43.931l21.662-43.931h6.932L103.802,78.595z"/>
			<g>
				<path fill="none" stroke="#A23B64" stroke-width="1.75" stroke-miterlimit="10" d="M134.476,48.701
					c0-3.754,0.721-7.293,2.167-10.615c1.442-3.321,3.393-6.209,5.849-8.665c2.454-2.455,5.357-4.405,8.708-5.849
					c3.349-1.443,6.931-2.167,10.744-2.167c2.773,0,5.429,0.39,7.972,1.17c2.541,0.78,4.881,1.893,7.019,3.336
					c2.136,1.445,4.057,3.149,5.762,5.112c1.703,1.964,3.104,4.102,4.203,6.412l-4.853,3.12c-0.866-1.906-1.979-3.668-3.335-5.286
					c-1.358-1.617-2.903-3.033-4.635-4.246c-1.733-1.213-3.627-2.151-5.677-2.816c-2.049-0.663-4.173-0.997-6.369-0.997
					c-2.945,0-5.749,0.594-8.404,1.776c-2.658,1.185-4.969,2.76-6.932,4.723c-1.965,1.964-3.524,4.261-4.68,6.889
					c-1.156,2.629-1.732,5.359-1.732,8.188c0,2.889,0.577,5.619,1.732,8.188c1.155,2.571,2.715,4.839,4.68,6.803
					c1.962,1.964,4.258,3.523,6.888,4.679c2.629,1.156,5.417,1.733,8.362,1.733c2.021,0,3.985-0.273,5.893-0.823
					c1.906-0.549,3.682-1.313,5.329-2.296c1.646-0.982,3.147-2.152,4.505-3.51c1.356-1.356,2.498-2.873,3.424-4.549l4.159,4.244
					c-2.427,3.814-5.647,6.89-9.663,9.229c-4.015,2.34-8.564,3.509-13.647,3.509c-3.813,0-7.395-0.722-10.744-2.165
					c-3.351-1.444-6.254-3.395-8.708-5.85c-2.456-2.454-4.406-5.342-5.849-8.665C135.196,55.995,134.476,52.455,134.476,48.701z"/>
				<rect x="159.084" y="47.487" fill="#A23B64" width="25.909" height="5.458"/>
			</g>
			<path fill="none" stroke="#61BB94" stroke-width="1.25" stroke-miterlimit="10" d="M203.926,54.853
				c0.605,1.964,1.458,3.799,2.556,5.502c1.097,1.704,2.412,3.25,3.942,4.637c1.53,1.385,3.22,2.512,5.07,3.379l-3.813,4.765
				c-2.196-1.154-4.189-2.584-5.979-4.289c-1.791-1.704-3.307-3.624-4.549-5.761c-1.242-2.138-2.209-4.42-2.902-6.847
				c-0.693-2.426-1.04-4.938-1.04-7.538c0-3.754,0.722-7.293,2.166-10.615c1.444-3.321,3.394-6.209,5.85-8.665
				c2.454-2.455,5.356-4.405,8.708-5.849c3.35-1.443,6.933-2.167,10.744-2.167c3.813,0,7.395,0.724,10.744,2.167
				c3.35,1.444,6.253,3.394,8.708,5.849c2.456,2.456,4.405,5.343,5.849,8.665c1.443,3.322,2.167,6.86,2.167,10.615
				c0,2.657-0.361,5.213-1.083,7.667c-0.723,2.456-1.748,4.737-3.075,6.846c-1.33,2.109-2.917,4.017-4.767,5.719
				c-1.85,1.705-3.899,3.106-6.151,4.202l-3.207-4.852c1.79-0.867,3.467-1.979,5.027-3.336c1.56-1.356,2.887-2.889,3.985-4.593
				c1.096-1.703,1.964-3.538,2.6-5.502c0.636-1.963,0.954-3.986,0.954-6.066c0-2.83-0.578-5.559-1.734-8.188
				c-1.156-2.627-2.715-4.924-4.679-6.889c-1.964-1.963-4.26-3.538-6.889-4.723c-2.629-1.182-5.415-1.776-8.361-1.776
				c-2.947,0-5.748,0.594-8.406,1.776c-2.658,1.185-4.969,2.76-6.931,4.723c-1.966,1.964-3.525,4.261-4.679,6.889
				c-1.157,2.629-1.734,5.359-1.734,8.188C203.015,50.866,203.32,52.89,203.926,54.853z"/>
			<path fill="none" stroke="#61BB94" stroke-width="1.25" stroke-miterlimit="10" d="M263.149,75.735v-54.07h10.139l34.225,48.957
				V21.666h6.066v54.07h-9.532l-34.833-49.043v49.043H263.149z"/>
			<path fill="none" stroke="#61BB94" stroke-width="1.25" stroke-miterlimit="10" d="M325.71,75.735v-54.07h6.064v48.61h35.094
				v5.46H325.71z"/>
			<path fill="none" stroke="#61BB94" stroke-width="1.25" stroke-miterlimit="10" d="M378.738,75.735v-54.07h6.153v54.07H378.738z"
				/>
			<path fill="none" stroke="#61BB94" stroke-width="1.25" stroke-miterlimit="10" d="M397.021,75.735v-54.07h10.139l34.226,48.957
				V21.666h6.066v54.07h-9.531l-34.834-49.043v49.043H397.021z"/>
			<path fill="none" stroke="#61BB94" stroke-width="1.25" stroke-miterlimit="10" d="M459.581,75.735v-54.07h41.159v5.459h-35.094
				v43.151h35.094v5.46H459.581z M500.047,47.487v5.458h-25.91v-5.458H500.047z"/>
		</g>
		<g>
			<path fill="none" stroke="#3687AE" stroke-width="2.25" stroke-miterlimit="10" d="M39.594,78.595L11.26,21.666h6.932
				l21.402,43.931l21.663-43.931h6.932L39.594,78.595z"/>
			<path fill="none" stroke="#AD9F35" stroke-width="2" stroke-miterlimit="10" d="M103.802,78.595L75.467,21.666h6.932
				l21.403,43.931l21.662-43.931h6.932L103.802,78.595z"/>
			<g>
				<path fill="none" stroke="#A23B64" stroke-width="1.75" stroke-miterlimit="10" d="M134.476,48.701
					c0-3.754,0.721-7.293,2.167-10.615c1.442-3.321,3.393-6.209,5.849-8.665c2.454-2.455,5.357-4.405,8.708-5.849
					c3.349-1.443,6.931-2.167,10.744-2.167c2.773,0,5.429,0.39,7.972,1.17c2.541,0.78,4.881,1.893,7.019,3.336
					c2.136,1.445,4.057,3.149,5.762,5.112c1.703,1.964,3.104,4.102,4.203,6.412l-4.853,3.12c-0.866-1.906-1.979-3.668-3.335-5.286
					c-1.358-1.617-2.903-3.033-4.635-4.246c-1.733-1.213-3.627-2.151-5.677-2.816c-2.049-0.663-4.173-0.997-6.369-0.997
					c-2.945,0-5.749,0.594-8.404,1.776c-2.658,1.185-4.969,2.76-6.932,4.723c-1.965,1.964-3.524,4.261-4.68,6.889
					c-1.156,2.629-1.732,5.359-1.732,8.188c0,2.889,0.577,5.619,1.732,8.188c1.155,2.571,2.715,4.839,4.68,6.803
					c1.962,1.964,4.258,3.523,6.888,4.679c2.629,1.156,5.417,1.733,8.362,1.733c2.021,0,3.985-0.273,5.893-0.823
					c1.906-0.549,3.682-1.313,5.329-2.296c1.646-0.982,3.147-2.152,4.505-3.51c1.356-1.356,2.498-2.873,3.424-4.549l4.159,4.244
					c-2.427,3.814-5.647,6.89-9.663,9.229c-4.015,2.34-8.564,3.509-13.647,3.509c-3.813,0-7.395-0.722-10.744-2.165
					c-3.351-1.444-6.254-3.395-8.708-5.85c-2.456-2.454-4.406-5.342-5.849-8.665C135.196,55.995,134.476,52.455,134.476,48.701z"/>
				<rect x="159.084" y="47.487" fill="#A23B64" width="25.909" height="5.458"/>
			</g>
			<path fill="none" stroke="#61BB94" stroke-width="1.25" stroke-miterlimit="10" d="M203.926,54.853
				c0.605,1.964,1.458,3.799,2.556,5.502c1.097,1.704,2.412,3.25,3.942,4.637c1.53,1.385,3.22,2.512,5.07,3.379l-3.813,4.765
				c-2.196-1.154-4.189-2.584-5.979-4.289c-1.791-1.704-3.307-3.624-4.549-5.761c-1.242-2.138-2.209-4.42-2.902-6.847
				c-0.693-2.426-1.04-4.938-1.04-7.538c0-3.754,0.722-7.293,2.166-10.615c1.444-3.321,3.394-6.209,5.85-8.665
				c2.454-2.455,5.356-4.405,8.708-5.849c3.35-1.443,6.933-2.167,10.744-2.167c3.813,0,7.395,0.724,10.744,2.167
				c3.35,1.444,6.253,3.394,8.708,5.849c2.456,2.456,4.405,5.343,5.849,8.665c1.443,3.322,2.167,6.86,2.167,10.615
				c0,2.657-0.361,5.213-1.083,7.667c-0.723,2.456-1.748,4.737-3.075,6.846c-1.33,2.109-2.917,4.017-4.767,5.719
				c-1.85,1.705-3.899,3.106-6.151,4.202l-3.207-4.852c1.79-0.867,3.467-1.979,5.027-3.336c1.56-1.356,2.887-2.889,3.985-4.593
				c1.096-1.703,1.964-3.538,2.6-5.502c0.636-1.963,0.954-3.986,0.954-6.066c0-2.83-0.578-5.559-1.734-8.188
				c-1.156-2.627-2.715-4.924-4.679-6.889c-1.964-1.963-4.26-3.538-6.889-4.723c-2.629-1.182-5.415-1.776-8.361-1.776
				c-2.947,0-5.748,0.594-8.406,1.776c-2.658,1.185-4.969,2.76-6.931,4.723c-1.966,1.964-3.525,4.261-4.679,6.889
				c-1.157,2.629-1.734,5.359-1.734,8.188C203.015,50.866,203.32,52.89,203.926,54.853z"/>
			<path fill="none" stroke="#61BB94" stroke-width="1.25" stroke-miterlimit="10" d="M263.149,75.735v-54.07h10.139l34.225,48.957
				V21.666h6.066v54.07h-9.532l-34.833-49.043v49.043H263.149z"/>
			<path fill="none" stroke="#61BB94" stroke-width="1.25" stroke-miterlimit="10" d="M325.71,75.735v-54.07h6.064v48.61h35.094
				v5.46H325.71z"/>
			<path fill="none" stroke="#61BB94" stroke-width="1.25" stroke-miterlimit="10" d="M378.738,75.735v-54.07h6.153v54.07H378.738z"
				/>
			<path fill="none" stroke="#61BB94" stroke-width="1.25" stroke-miterlimit="10" d="M397.021,75.735v-54.07h10.139l34.226,48.957
				V21.666h6.066v54.07h-9.531l-34.834-49.043v49.043H397.021z"/>
			<path fill="none" stroke="#61BB94" stroke-width="1.25" stroke-miterlimit="10" d="M459.581,75.735v-54.07h41.159v5.459h-35.094
				v43.151h35.094v5.46H459.581z M500.047,47.487v5.458h-25.91v-5.458H500.047z"/>
		</g>
		<g>
			<path fill="none" stroke="#3687AE" stroke-width="2.25" stroke-miterlimit="10" d="M39.594,78.595L11.26,21.666h6.932
				l21.402,43.931l21.663-43.931h6.932L39.594,78.595z"/>
			<path fill="none" stroke="#AD9F35" stroke-width="2" stroke-miterlimit="10" d="M103.802,78.595L75.467,21.666h6.932
				l21.403,43.931l21.662-43.931h6.932L103.802,78.595z"/>
			<g>
				<path fill="none" stroke="#A23B64" stroke-width="1.75" stroke-miterlimit="10" d="M134.476,48.701
					c0-3.754,0.721-7.293,2.167-10.615c1.442-3.321,3.393-6.209,5.849-8.665c2.454-2.455,5.357-4.405,8.708-5.849
					c3.349-1.443,6.931-2.167,10.744-2.167c2.773,0,5.429,0.39,7.972,1.17c2.541,0.78,4.881,1.893,7.019,3.336
					c2.136,1.445,4.057,3.149,5.762,5.112c1.703,1.964,3.104,4.102,4.203,6.412l-4.853,3.12c-0.866-1.906-1.979-3.668-3.335-5.286
					c-1.358-1.617-2.903-3.033-4.635-4.246c-1.733-1.213-3.627-2.151-5.677-2.816c-2.049-0.663-4.173-0.997-6.369-0.997
					c-2.945,0-5.749,0.594-8.404,1.776c-2.658,1.185-4.969,2.76-6.932,4.723c-1.965,1.964-3.524,4.261-4.68,6.889
					c-1.156,2.629-1.732,5.359-1.732,8.188c0,2.889,0.577,5.619,1.732,8.188c1.155,2.571,2.715,4.839,4.68,6.803
					c1.962,1.964,4.258,3.523,6.888,4.679c2.629,1.156,5.417,1.733,8.362,1.733c2.021,0,3.985-0.273,5.893-0.823
					c1.906-0.549,3.682-1.313,5.329-2.296c1.646-0.982,3.147-2.152,4.505-3.51c1.356-1.356,2.498-2.873,3.424-4.549l4.159,4.244
					c-2.427,3.814-5.647,6.89-9.663,9.229c-4.015,2.34-8.564,3.509-13.647,3.509c-3.813,0-7.395-0.722-10.744-2.165
					c-3.351-1.444-6.254-3.395-8.708-5.85c-2.456-2.454-4.406-5.342-5.849-8.665C135.196,55.995,134.476,52.455,134.476,48.701z"/>
				<rect x="159.084" y="47.487" fill="#A23B64" width="25.909" height="5.458"/>
			</g>
			<path fill="none" stroke="#61BB94" stroke-width="1.25" stroke-miterlimit="10" d="M203.926,54.853
				c0.605,1.964,1.458,3.799,2.556,5.502c1.097,1.704,2.412,3.25,3.942,4.637c1.53,1.385,3.22,2.512,5.07,3.379l-3.813,4.765
				c-2.196-1.154-4.189-2.584-5.979-4.289c-1.791-1.704-3.307-3.624-4.549-5.761c-1.242-2.138-2.209-4.42-2.902-6.847
				c-0.693-2.426-1.04-4.938-1.04-7.538c0-3.754,0.722-7.293,2.166-10.615c1.444-3.321,3.394-6.209,5.85-8.665
				c2.454-2.455,5.356-4.405,8.708-5.849c3.35-1.443,6.933-2.167,10.744-2.167c3.813,0,7.395,0.724,10.744,2.167
				c3.35,1.444,6.253,3.394,8.708,5.849c2.456,2.456,4.405,5.343,5.849,8.665c1.443,3.322,2.167,6.86,2.167,10.615
				c0,2.657-0.361,5.213-1.083,7.667c-0.723,2.456-1.748,4.737-3.075,6.846c-1.33,2.109-2.917,4.017-4.767,5.719
				c-1.85,1.705-3.899,3.106-6.151,4.202l-3.207-4.852c1.79-0.867,3.467-1.979,5.027-3.336c1.56-1.356,2.887-2.889,3.985-4.593
				c1.096-1.703,1.964-3.538,2.6-5.502c0.636-1.963,0.954-3.986,0.954-6.066c0-2.83-0.578-5.559-1.734-8.188
				c-1.156-2.627-2.715-4.924-4.679-6.889c-1.964-1.963-4.26-3.538-6.889-4.723c-2.629-1.182-5.415-1.776-8.361-1.776
				c-2.947,0-5.748,0.594-8.406,1.776c-2.658,1.185-4.969,2.76-6.931,4.723c-1.966,1.964-3.525,4.261-4.679,6.889
				c-1.157,2.629-1.734,5.359-1.734,8.188C203.015,50.866,203.32,52.89,203.926,54.853z"/>
			<path fill="none" stroke="#61BB94" stroke-width="1.25" stroke-miterlimit="10" d="M263.149,75.735v-54.07h10.139l34.225,48.957
				V21.666h6.066v54.07h-9.532l-34.833-49.043v49.043H263.149z"/>
			<path fill="none" stroke="#61BB94" stroke-width="1.25" stroke-miterlimit="10" d="M325.71,75.735v-54.07h6.064v48.61h35.094
				v5.46H325.71z"/>
			<path fill="none" stroke="#61BB94" stroke-width="1.25" stroke-miterlimit="10" d="M378.738,75.735v-54.07h6.153v54.07H378.738z"
				/>
			<path fill="none" stroke="#61BB94" stroke-width="1.25" stroke-miterlimit="10" d="M397.021,75.735v-54.07h10.139l34.226,48.957
				V21.666h6.066v54.07h-9.531l-34.834-49.043v49.043H397.021z"/>
			<path fill="none" stroke="#61BB94" stroke-width="1.25" stroke-miterlimit="10" d="M459.581,75.735v-54.07h41.159v5.459h-35.094
				v43.151h35.094v5.46H459.581z M500.047,47.487v5.458h-25.91v-5.458H500.047z"/>
		</g>
		<path fill="none" stroke="#5CBFEC" stroke-width="2.25" stroke-miterlimit="10" d="M39.594,78.595L11.26,21.666h6.932
			l21.402,43.931l21.663-43.931h6.932L39.594,78.595z"/>
		<path fill="none" stroke="#F9E54F" stroke-width="2" stroke-miterlimit="10" d="M103.802,78.595L75.467,21.666h6.932
			l21.403,43.931l21.662-43.931h6.932L103.802,78.595z"/>
		<path fill="none" stroke="#EE5692" stroke-miterlimit="10" d="M134.476,48.701c0-3.754,0.721-7.293,2.167-10.615
			c1.442-3.321,3.393-6.209,5.849-8.665c2.454-2.455,5.357-4.405,8.708-5.849c3.349-1.443,6.931-2.167,10.744-2.167
			c2.773,0,5.429,0.39,7.972,1.17c2.541,0.78,4.881,1.893,7.019,3.336c2.136,1.445,4.057,3.149,5.762,5.112
			c1.703,1.964,3.104,4.102,4.203,6.412l-4.853,3.12c-0.866-1.906-1.979-3.668-3.335-5.286c-1.358-1.617-2.903-3.033-4.635-4.246
			c-1.733-1.213-3.627-2.151-5.677-2.816c-2.049-0.663-4.173-0.997-6.369-0.997c-2.945,0-5.749,0.594-8.404,1.776
			c-2.658,1.185-4.969,2.76-6.932,4.723c-1.965,1.964-3.524,4.261-4.68,6.889c-1.156,2.629-1.732,5.359-1.732,8.188
			c0,2.889,0.577,5.619,1.732,8.188c1.155,2.571,2.715,4.839,4.68,6.803c1.962,1.964,4.258,3.523,6.888,4.679
			c2.629,1.156,5.417,1.733,8.362,1.733c2.021,0,3.985-0.273,5.893-0.823c1.906-0.549,3.682-1.313,5.329-2.296
			c1.646-0.982,3.147-2.152,4.505-3.51c1.356-1.356,2.498-2.873,3.424-4.549l4.159,4.244c-2.427,3.814-5.647,6.89-9.663,9.229
			c-4.015,2.34-8.564,3.509-13.647,3.509c-3.813,0-7.395-0.722-10.744-2.165c-3.351-1.444-6.254-3.395-8.708-5.85
			c-2.456-2.454-4.406-5.342-5.849-8.665C135.196,55.995,134.476,52.455,134.476,48.701z"/>
		<rect x="159.084" y="47.487" fill="#EE5692" width="25.909" height="5.458"/>
		<path fill="none" stroke="#61BB94" stroke-width="1.25" stroke-miterlimit="10" d="M203.926,54.853
			c0.605,1.964,1.458,3.799,2.556,5.502c1.097,1.704,2.412,3.25,3.942,4.637c1.53,1.385,3.22,2.512,5.07,3.379l-3.813,4.765
			c-2.196-1.154-4.189-2.584-5.979-4.289c-1.791-1.704-3.307-3.624-4.549-5.761c-1.242-2.138-2.209-4.42-2.902-6.847
			c-0.693-2.426-1.04-4.938-1.04-7.538c0-3.754,0.722-7.293,2.166-10.615c1.444-3.321,3.394-6.209,5.85-8.665
			c2.454-2.455,5.356-4.405,8.708-5.849c3.35-1.443,6.933-2.167,10.744-2.167c3.813,0,7.395,0.724,10.744,2.167
			c3.35,1.444,6.253,3.394,8.708,5.849c2.456,2.456,4.405,5.343,5.849,8.665c1.443,3.322,2.167,6.86,2.167,10.615
			c0,2.657-0.361,5.213-1.083,7.667c-0.723,2.456-1.748,4.737-3.075,6.846c-1.33,2.109-2.917,4.017-4.767,5.719
			c-1.85,1.705-3.899,3.106-6.151,4.202l-3.207-4.852c1.79-0.867,3.467-1.979,5.027-3.336c1.56-1.356,2.887-2.889,3.985-4.593
			c1.096-1.703,1.964-3.538,2.6-5.502c0.636-1.963,0.954-3.986,0.954-6.066c0-2.83-0.578-5.559-1.734-8.188
			c-1.156-2.627-2.715-4.924-4.679-6.889c-1.964-1.963-4.26-3.538-6.889-4.723c-2.629-1.182-5.415-1.776-8.361-1.776
			c-2.947,0-5.748,0.594-8.406,1.776c-2.658,1.185-4.969,2.76-6.931,4.723c-1.966,1.964-3.525,4.261-4.679,6.889
			c-1.157,2.629-1.734,5.359-1.734,8.188C203.015,50.866,203.32,52.89,203.926,54.853z"/>
		<path fill="none" stroke="#61BB94" stroke-width="1.25" stroke-miterlimit="10" d="M263.149,75.735v-54.07h10.139l34.225,48.957
			V21.666h6.066v54.07h-9.532l-34.833-49.043v49.043H263.149z"/>
		<path fill="none" stroke="#61BB94" stroke-width="1.25" stroke-miterlimit="10" d="M325.71,75.735v-54.07h6.064v48.61h35.094v5.46
			H325.71z"/>
		<path fill="none" stroke="#61BB94" stroke-width="1.25" stroke-miterlimit="10" d="M378.738,75.735v-54.07h6.153v54.07H378.738z"
			/>
		<path fill="none" stroke="#61BB94" stroke-width="1.25" stroke-miterlimit="10" d="M397.021,75.735v-54.07h10.139l34.226,48.957
			V21.666h6.066v54.07h-9.531l-34.834-49.043v49.043H397.021z"/>
		<path fill="none" stroke="#61BB94" stroke-width="1.25" stroke-miterlimit="10" d="M459.581,75.735v-54.07h41.159v5.459h-35.094
			v43.151h35.094v5.46H459.581z M500.047,47.487v5.458h-25.91v-5.458H500.047z"/>
	</g>
	<g>
		<g>
			<path fill="none" stroke="#3687AE" stroke-width="2.25" stroke-miterlimit="10" d="M39.594,78.595L11.26,21.666h6.932
				l21.402,43.931l21.663-43.931h6.932L39.594,78.595z"/>
			<path fill="none" stroke="#AD9F35" stroke-width="2" stroke-miterlimit="10" d="M103.802,78.595L75.467,21.666h6.932
				l21.403,43.931l21.662-43.931h6.932L103.802,78.595z"/>
			<g>
				<path fill="none" stroke="#A23B64" stroke-width="1.75" stroke-miterlimit="10" d="M134.476,48.701
					c0-3.754,0.721-7.293,2.167-10.615c1.442-3.321,3.393-6.209,5.849-8.665c2.454-2.455,5.357-4.405,8.708-5.849
					c3.349-1.443,6.931-2.167,10.744-2.167c2.773,0,5.429,0.39,7.972,1.17c2.541,0.78,4.881,1.893,7.019,3.336
					c2.136,1.445,4.057,3.149,5.762,5.112c1.703,1.964,3.104,4.102,4.203,6.412l-4.853,3.12c-0.866-1.906-1.979-3.668-3.335-5.286
					c-1.358-1.617-2.903-3.033-4.635-4.246c-1.733-1.213-3.627-2.151-5.677-2.816c-2.049-0.663-4.173-0.997-6.369-0.997
					c-2.945,0-5.749,0.594-8.404,1.776c-2.658,1.185-4.969,2.76-6.932,4.723c-1.965,1.964-3.524,4.261-4.68,6.889
					c-1.156,2.629-1.732,5.359-1.732,8.188c0,2.889,0.577,5.619,1.732,8.188c1.155,2.571,2.715,4.839,4.68,6.803
					c1.962,1.964,4.258,3.523,6.888,4.679c2.629,1.156,5.417,1.733,8.362,1.733c2.021,0,3.985-0.273,5.893-0.823
					c1.906-0.549,3.682-1.313,5.329-2.296c1.646-0.982,3.147-2.152,4.505-3.51c1.356-1.356,2.498-2.873,3.424-4.549l4.159,4.244
					c-2.427,3.814-5.647,6.89-9.663,9.229c-4.015,2.34-8.564,3.509-13.647,3.509c-3.813,0-7.395-0.722-10.744-2.165
					c-3.351-1.444-6.254-3.395-8.708-5.85c-2.456-2.454-4.406-5.342-5.849-8.665C135.196,55.995,134.476,52.455,134.476,48.701z"/>
				<rect x="159.084" y="47.487" fill="#A23B64" width="25.909" height="5.458"/>
			</g>
			<path fill="none" stroke="#61BB94" stroke-width="1.25" stroke-miterlimit="10" d="M203.926,54.853
				c0.605,1.964,1.458,3.799,2.556,5.502c1.097,1.704,2.412,3.25,3.942,4.637c1.53,1.385,3.22,2.512,5.07,3.379l-3.813,4.765
				c-2.196-1.154-4.189-2.584-5.979-4.289c-1.791-1.704-3.307-3.624-4.549-5.761c-1.242-2.138-2.209-4.42-2.902-6.847
				c-0.693-2.426-1.04-4.938-1.04-7.538c0-3.754,0.722-7.293,2.166-10.615c1.444-3.321,3.394-6.209,5.85-8.665
				c2.454-2.455,5.356-4.405,8.708-5.849c3.35-1.443,6.933-2.167,10.744-2.167c3.813,0,7.395,0.724,10.744,2.167
				c3.35,1.444,6.253,3.394,8.708,5.849c2.456,2.456,4.405,5.343,5.849,8.665c1.443,3.322,2.167,6.86,2.167,10.615
				c0,2.657-0.361,5.213-1.083,7.667c-0.723,2.456-1.748,4.737-3.075,6.846c-1.33,2.109-2.917,4.017-4.767,5.719
				c-1.85,1.705-3.899,3.106-6.151,4.202l-3.207-4.852c1.79-0.867,3.467-1.979,5.027-3.336c1.56-1.356,2.887-2.889,3.985-4.593
				c1.096-1.703,1.964-3.538,2.6-5.502c0.636-1.963,0.954-3.986,0.954-6.066c0-2.83-0.578-5.559-1.734-8.188
				c-1.156-2.627-2.715-4.924-4.679-6.889c-1.964-1.963-4.26-3.538-6.889-4.723c-2.629-1.182-5.415-1.776-8.361-1.776
				c-2.947,0-5.748,0.594-8.406,1.776c-2.658,1.185-4.969,2.76-6.931,4.723c-1.966,1.964-3.525,4.261-4.679,6.889
				c-1.157,2.629-1.734,5.359-1.734,8.188C203.015,50.866,203.32,52.89,203.926,54.853z"/>
			<path fill="none" stroke="#61BB94" stroke-width="1.25" stroke-miterlimit="10" d="M263.149,75.735v-54.07h10.139l34.225,48.957
				V21.666h6.066v54.07h-9.532l-34.833-49.043v49.043H263.149z"/>
			<path fill="none" stroke="#61BB94" stroke-width="1.25" stroke-miterlimit="10" d="M325.71,75.735v-54.07h6.064v48.61h35.094
				v5.46H325.71z"/>
			<path fill="none" stroke="#61BB94" stroke-width="1.25" stroke-miterlimit="10" d="M378.738,75.735v-54.07h6.153v54.07H378.738z"
				/>
			<path fill="none" stroke="#61BB94" stroke-width="1.25" stroke-miterlimit="10" d="M397.021,75.735v-54.07h10.139l34.226,48.957
				V21.666h6.066v54.07h-9.531l-34.834-49.043v49.043H397.021z"/>
			<path fill="none" stroke="#61BB94" stroke-width="1.25" stroke-miterlimit="10" d="M459.581,75.735v-54.07h41.159v5.459h-35.094
				v43.151h35.094v5.46H459.581z M500.047,47.487v5.458h-25.91v-5.458H500.047z"/>
		</g>
		<g>
			<path fill="none" stroke="#3687AE" stroke-width="2.25" stroke-miterlimit="10" d="M39.594,78.595L11.26,21.666h6.932
				l21.402,43.931l21.663-43.931h6.932L39.594,78.595z"/>
			<path fill="none" stroke="#AD9F35" stroke-width="2" stroke-miterlimit="10" d="M103.802,78.595L75.467,21.666h6.932
				l21.403,43.931l21.662-43.931h6.932L103.802,78.595z"/>
			<g>
				<path fill="none" stroke="#A23B64" stroke-width="1.75" stroke-miterlimit="10" d="M134.476,48.701
					c0-3.754,0.721-7.293,2.167-10.615c1.442-3.321,3.393-6.209,5.849-8.665c2.454-2.455,5.357-4.405,8.708-5.849
					c3.349-1.443,6.931-2.167,10.744-2.167c2.773,0,5.429,0.39,7.972,1.17c2.541,0.78,4.881,1.893,7.019,3.336
					c2.136,1.445,4.057,3.149,5.762,5.112c1.703,1.964,3.104,4.102,4.203,6.412l-4.853,3.12c-0.866-1.906-1.979-3.668-3.335-5.286
					c-1.358-1.617-2.903-3.033-4.635-4.246c-1.733-1.213-3.627-2.151-5.677-2.816c-2.049-0.663-4.173-0.997-6.369-0.997
					c-2.945,0-5.749,0.594-8.404,1.776c-2.658,1.185-4.969,2.76-6.932,4.723c-1.965,1.964-3.524,4.261-4.68,6.889
					c-1.156,2.629-1.732,5.359-1.732,8.188c0,2.889,0.577,5.619,1.732,8.188c1.155,2.571,2.715,4.839,4.68,6.803
					c1.962,1.964,4.258,3.523,6.888,4.679c2.629,1.156,5.417,1.733,8.362,1.733c2.021,0,3.985-0.273,5.893-0.823
					c1.906-0.549,3.682-1.313,5.329-2.296c1.646-0.982,3.147-2.152,4.505-3.51c1.356-1.356,2.498-2.873,3.424-4.549l4.159,4.244
					c-2.427,3.814-5.647,6.89-9.663,9.229c-4.015,2.34-8.564,3.509-13.647,3.509c-3.813,0-7.395-0.722-10.744-2.165
					c-3.351-1.444-6.254-3.395-8.708-5.85c-2.456-2.454-4.406-5.342-5.849-8.665C135.196,55.995,134.476,52.455,134.476,48.701z"/>
				<rect x="159.084" y="47.487" fill="#A23B64" width="25.909" height="5.458"/>
			</g>
			<path fill="none" stroke="#61BB94" stroke-width="1.25" stroke-miterlimit="10" d="M203.926,54.853
				c0.605,1.964,1.458,3.799,2.556,5.502c1.097,1.704,2.412,3.25,3.942,4.637c1.53,1.385,3.22,2.512,5.07,3.379l-3.813,4.765
				c-2.196-1.154-4.189-2.584-5.979-4.289c-1.791-1.704-3.307-3.624-4.549-5.761c-1.242-2.138-2.209-4.42-2.902-6.847
				c-0.693-2.426-1.04-4.938-1.04-7.538c0-3.754,0.722-7.293,2.166-10.615c1.444-3.321,3.394-6.209,5.85-8.665
				c2.454-2.455,5.356-4.405,8.708-5.849c3.35-1.443,6.933-2.167,10.744-2.167c3.813,0,7.395,0.724,10.744,2.167
				c3.35,1.444,6.253,3.394,8.708,5.849c2.456,2.456,4.405,5.343,5.849,8.665c1.443,3.322,2.167,6.86,2.167,10.615
				c0,2.657-0.361,5.213-1.083,7.667c-0.723,2.456-1.748,4.737-3.075,6.846c-1.33,2.109-2.917,4.017-4.767,5.719
				c-1.85,1.705-3.899,3.106-6.151,4.202l-3.207-4.852c1.79-0.867,3.467-1.979,5.027-3.336c1.56-1.356,2.887-2.889,3.985-4.593
				c1.096-1.703,1.964-3.538,2.6-5.502c0.636-1.963,0.954-3.986,0.954-6.066c0-2.83-0.578-5.559-1.734-8.188
				c-1.156-2.627-2.715-4.924-4.679-6.889c-1.964-1.963-4.26-3.538-6.889-4.723c-2.629-1.182-5.415-1.776-8.361-1.776
				c-2.947,0-5.748,0.594-8.406,1.776c-2.658,1.185-4.969,2.76-6.931,4.723c-1.966,1.964-3.525,4.261-4.679,6.889
				c-1.157,2.629-1.734,5.359-1.734,8.188C203.015,50.866,203.32,52.89,203.926,54.853z"/>
			<path fill="none" stroke="#61BB94" stroke-width="1.25" stroke-miterlimit="10" d="M263.149,75.735v-54.07h10.139l34.225,48.957
				V21.666h6.066v54.07h-9.532l-34.833-49.043v49.043H263.149z"/>
			<path fill="none" stroke="#61BB94" stroke-width="1.25" stroke-miterlimit="10" d="M325.71,75.735v-54.07h6.064v48.61h35.094
				v5.46H325.71z"/>
			<path fill="none" stroke="#61BB94" stroke-width="1.25" stroke-miterlimit="10" d="M378.738,75.735v-54.07h6.153v54.07H378.738z"
				/>
			<path fill="none" stroke="#61BB94" stroke-width="1.25" stroke-miterlimit="10" d="M397.021,75.735v-54.07h10.139l34.226,48.957
				V21.666h6.066v54.07h-9.531l-34.834-49.043v49.043H397.021z"/>
			<path fill="none" stroke="#61BB94" stroke-width="1.25" stroke-miterlimit="10" d="M459.581,75.735v-54.07h41.159v5.459h-35.094
				v43.151h35.094v5.46H459.581z M500.047,47.487v5.458h-25.91v-5.458H500.047z"/>
		</g>
		<g>
			<path fill="none" stroke="#3687AE" stroke-width="2.25" stroke-miterlimit="10" d="M39.594,78.595L11.26,21.666h6.932
				l21.402,43.931l21.663-43.931h6.932L39.594,78.595z"/>
			<path fill="none" stroke="#AD9F35" stroke-width="2" stroke-miterlimit="10" d="M103.802,78.595L75.467,21.666h6.932
				l21.403,43.931l21.662-43.931h6.932L103.802,78.595z"/>
			<g>
				<path fill="none" stroke="#A23B64" stroke-width="1.75" stroke-miterlimit="10" d="M134.476,48.701
					c0-3.754,0.721-7.293,2.167-10.615c1.442-3.321,3.393-6.209,5.849-8.665c2.454-2.455,5.357-4.405,8.708-5.849
					c3.349-1.443,6.931-2.167,10.744-2.167c2.773,0,5.429,0.39,7.972,1.17c2.541,0.78,4.881,1.893,7.019,3.336
					c2.136,1.445,4.057,3.149,5.762,5.112c1.703,1.964,3.104,4.102,4.203,6.412l-4.853,3.12c-0.866-1.906-1.979-3.668-3.335-5.286
					c-1.358-1.617-2.903-3.033-4.635-4.246c-1.733-1.213-3.627-2.151-5.677-2.816c-2.049-0.663-4.173-0.997-6.369-0.997
					c-2.945,0-5.749,0.594-8.404,1.776c-2.658,1.185-4.969,2.76-6.932,4.723c-1.965,1.964-3.524,4.261-4.68,6.889
					c-1.156,2.629-1.732,5.359-1.732,8.188c0,2.889,0.577,5.619,1.732,8.188c1.155,2.571,2.715,4.839,4.68,6.803
					c1.962,1.964,4.258,3.523,6.888,4.679c2.629,1.156,5.417,1.733,8.362,1.733c2.021,0,3.985-0.273,5.893-0.823
					c1.906-0.549,3.682-1.313,5.329-2.296c1.646-0.982,3.147-2.152,4.505-3.51c1.356-1.356,2.498-2.873,3.424-4.549l4.159,4.244
					c-2.427,3.814-5.647,6.89-9.663,9.229c-4.015,2.34-8.564,3.509-13.647,3.509c-3.813,0-7.395-0.722-10.744-2.165
					c-3.351-1.444-6.254-3.395-8.708-5.85c-2.456-2.454-4.406-5.342-5.849-8.665C135.196,55.995,134.476,52.455,134.476,48.701z"/>
				<rect x="159.084" y="47.487" fill="#A23B64" width="25.909" height="5.458"/>
			</g>
			<path fill="none" stroke="#61BB94" stroke-width="1.25" stroke-miterlimit="10" d="M203.926,54.853
				c0.605,1.964,1.458,3.799,2.556,5.502c1.097,1.704,2.412,3.25,3.942,4.637c1.53,1.385,3.22,2.512,5.07,3.379l-3.813,4.765
				c-2.196-1.154-4.189-2.584-5.979-4.289c-1.791-1.704-3.307-3.624-4.549-5.761c-1.242-2.138-2.209-4.42-2.902-6.847
				c-0.693-2.426-1.04-4.938-1.04-7.538c0-3.754,0.722-7.293,2.166-10.615c1.444-3.321,3.394-6.209,5.85-8.665
				c2.454-2.455,5.356-4.405,8.708-5.849c3.35-1.443,6.933-2.167,10.744-2.167c3.813,0,7.395,0.724,10.744,2.167
				c3.35,1.444,6.253,3.394,8.708,5.849c2.456,2.456,4.405,5.343,5.849,8.665c1.443,3.322,2.167,6.86,2.167,10.615
				c0,2.657-0.361,5.213-1.083,7.667c-0.723,2.456-1.748,4.737-3.075,6.846c-1.33,2.109-2.917,4.017-4.767,5.719
				c-1.85,1.705-3.899,3.106-6.151,4.202l-3.207-4.852c1.79-0.867,3.467-1.979,5.027-3.336c1.56-1.356,2.887-2.889,3.985-4.593
				c1.096-1.703,1.964-3.538,2.6-5.502c0.636-1.963,0.954-3.986,0.954-6.066c0-2.83-0.578-5.559-1.734-8.188
				c-1.156-2.627-2.715-4.924-4.679-6.889c-1.964-1.963-4.26-3.538-6.889-4.723c-2.629-1.182-5.415-1.776-8.361-1.776
				c-2.947,0-5.748,0.594-8.406,1.776c-2.658,1.185-4.969,2.76-6.931,4.723c-1.966,1.964-3.525,4.261-4.679,6.889
				c-1.157,2.629-1.734,5.359-1.734,8.188C203.015,50.866,203.32,52.89,203.926,54.853z"/>
			<path fill="none" stroke="#61BB94" stroke-width="1.25" stroke-miterlimit="10" d="M263.149,75.735v-54.07h10.139l34.225,48.957
				V21.666h6.066v54.07h-9.532l-34.833-49.043v49.043H263.149z"/>
			<path fill="none" stroke="#61BB94" stroke-width="1.25" stroke-miterlimit="10" d="M325.71,75.735v-54.07h6.064v48.61h35.094
				v5.46H325.71z"/>
			<path fill="none" stroke="#61BB94" stroke-width="1.25" stroke-miterlimit="10" d="M378.738,75.735v-54.07h6.153v54.07H378.738z"
				/>
			<path fill="none" stroke="#61BB94" stroke-width="1.25" stroke-miterlimit="10" d="M397.021,75.735v-54.07h10.139l34.226,48.957
				V21.666h6.066v54.07h-9.531l-34.834-49.043v49.043H397.021z"/>
			<path fill="none" stroke="#61BB94" stroke-width="1.25" stroke-miterlimit="10" d="M459.581,75.735v-54.07h41.159v5.459h-35.094
				v43.151h35.094v5.46H459.581z M500.047,47.487v5.458h-25.91v-5.458H500.047z"/>
		</g>
		<g>
			<path fill="none" stroke="#3687AE" stroke-width="2.25" stroke-miterlimit="10" d="M39.594,78.595L11.26,21.666h6.932
				l21.402,43.931l21.663-43.931h6.932L39.594,78.595z"/>
			<path fill="none" stroke="#AD9F35" stroke-width="2" stroke-miterlimit="10" d="M103.802,78.595L75.467,21.666h6.932
				l21.403,43.931l21.662-43.931h6.932L103.802,78.595z"/>
			<g>
				<path fill="none" stroke="#A23B64" stroke-width="1.75" stroke-miterlimit="10" d="M134.476,48.701
					c0-3.754,0.721-7.293,2.167-10.615c1.442-3.321,3.393-6.209,5.849-8.665c2.454-2.455,5.357-4.405,8.708-5.849
					c3.349-1.443,6.931-2.167,10.744-2.167c2.773,0,5.429,0.39,7.972,1.17c2.541,0.78,4.881,1.893,7.019,3.336
					c2.136,1.445,4.057,3.149,5.762,5.112c1.703,1.964,3.104,4.102,4.203,6.412l-4.853,3.12c-0.866-1.906-1.979-3.668-3.335-5.286
					c-1.358-1.617-2.903-3.033-4.635-4.246c-1.733-1.213-3.627-2.151-5.677-2.816c-2.049-0.663-4.173-0.997-6.369-0.997
					c-2.945,0-5.749,0.594-8.404,1.776c-2.658,1.185-4.969,2.76-6.932,4.723c-1.965,1.964-3.524,4.261-4.68,6.889
					c-1.156,2.629-1.732,5.359-1.732,8.188c0,2.889,0.577,5.619,1.732,8.188c1.155,2.571,2.715,4.839,4.68,6.803
					c1.962,1.964,4.258,3.523,6.888,4.679c2.629,1.156,5.417,1.733,8.362,1.733c2.021,0,3.985-0.273,5.893-0.823
					c1.906-0.549,3.682-1.313,5.329-2.296c1.646-0.982,3.147-2.152,4.505-3.51c1.356-1.356,2.498-2.873,3.424-4.549l4.159,4.244
					c-2.427,3.814-5.647,6.89-9.663,9.229c-4.015,2.34-8.564,3.509-13.647,3.509c-3.813,0-7.395-0.722-10.744-2.165
					c-3.351-1.444-6.254-3.395-8.708-5.85c-2.456-2.454-4.406-5.342-5.849-8.665C135.196,55.995,134.476,52.455,134.476,48.701z"/>
				<rect x="159.084" y="47.487" fill="#A23B64" width="25.909" height="5.458"/>
			</g>
			<path fill="none" stroke="#61BB94" stroke-width="1.25" stroke-miterlimit="10" d="M203.926,54.853
				c0.605,1.964,1.458,3.799,2.556,5.502c1.097,1.704,2.412,3.25,3.942,4.637c1.53,1.385,3.22,2.512,5.07,3.379l-3.813,4.765
				c-2.196-1.154-4.189-2.584-5.979-4.289c-1.791-1.704-3.307-3.624-4.549-5.761c-1.242-2.138-2.209-4.42-2.902-6.847
				c-0.693-2.426-1.04-4.938-1.04-7.538c0-3.754,0.722-7.293,2.166-10.615c1.444-3.321,3.394-6.209,5.85-8.665
				c2.454-2.455,5.356-4.405,8.708-5.849c3.35-1.443,6.933-2.167,10.744-2.167c3.813,0,7.395,0.724,10.744,2.167
				c3.35,1.444,6.253,3.394,8.708,5.849c2.456,2.456,4.405,5.343,5.849,8.665c1.443,3.322,2.167,6.86,2.167,10.615
				c0,2.657-0.361,5.213-1.083,7.667c-0.723,2.456-1.748,4.737-3.075,6.846c-1.33,2.109-2.917,4.017-4.767,5.719
				c-1.85,1.705-3.899,3.106-6.151,4.202l-3.207-4.852c1.79-0.867,3.467-1.979,5.027-3.336c1.56-1.356,2.887-2.889,3.985-4.593
				c1.096-1.703,1.964-3.538,2.6-5.502c0.636-1.963,0.954-3.986,0.954-6.066c0-2.83-0.578-5.559-1.734-8.188
				c-1.156-2.627-2.715-4.924-4.679-6.889c-1.964-1.963-4.26-3.538-6.889-4.723c-2.629-1.182-5.415-1.776-8.361-1.776
				c-2.947,0-5.748,0.594-8.406,1.776c-2.658,1.185-4.969,2.76-6.931,4.723c-1.966,1.964-3.525,4.261-4.679,6.889
				c-1.157,2.629-1.734,5.359-1.734,8.188C203.015,50.866,203.32,52.89,203.926,54.853z"/>
			<path fill="none" stroke="#61BB94" stroke-width="1.25" stroke-miterlimit="10" d="M263.149,75.735v-54.07h10.139l34.225,48.957
				V21.666h6.066v54.07h-9.532l-34.833-49.043v49.043H263.149z"/>
			<path fill="none" stroke="#61BB94" stroke-width="1.25" stroke-miterlimit="10" d="M325.71,75.735v-54.07h6.064v48.61h35.094
				v5.46H325.71z"/>
			<path fill="none" stroke="#61BB94" stroke-width="1.25" stroke-miterlimit="10" d="M378.738,75.735v-54.07h6.153v54.07H378.738z"
				/>
			<path fill="none" stroke="#61BB94" stroke-width="1.25" stroke-miterlimit="10" d="M397.021,75.735v-54.07h10.139l34.226,48.957
				V21.666h6.066v54.07h-9.531l-34.834-49.043v49.043H397.021z"/>
			<path fill="none" stroke="#61BB94" stroke-width="1.25" stroke-miterlimit="10" d="M459.581,75.735v-54.07h41.159v5.459h-35.094
				v43.151h35.094v5.46H459.581z M500.047,47.487v5.458h-25.91v-5.458H500.047z"/>
		</g>
		<path fill="none" stroke="#5CBFEC" stroke-width="2.25" stroke-miterlimit="10" d="M39.594,78.595L11.26,21.666h6.932
			l21.402,43.931l21.663-43.931h6.932L39.594,78.595z"/>
		<path fill="none" stroke="#F9E54F" stroke-width="2" stroke-miterlimit="10" d="M103.802,78.595L75.467,21.666h6.932
			l21.403,43.931l21.662-43.931h6.932L103.802,78.595z"/>
		<path fill="none" stroke="#EE5692" stroke-miterlimit="10" d="M134.476,48.701c0-3.754,0.721-7.293,2.167-10.615
			c1.442-3.321,3.393-6.209,5.849-8.665c2.454-2.455,5.357-4.405,8.708-5.849c3.349-1.443,6.931-2.167,10.744-2.167
			c2.773,0,5.429,0.39,7.972,1.17c2.541,0.78,4.881,1.893,7.019,3.336c2.136,1.445,4.057,3.149,5.762,5.112
			c1.703,1.964,3.104,4.102,4.203,6.412l-4.853,3.12c-0.866-1.906-1.979-3.668-3.335-5.286c-1.358-1.617-2.903-3.033-4.635-4.246
			c-1.733-1.213-3.627-2.151-5.677-2.816c-2.049-0.663-4.173-0.997-6.369-0.997c-2.945,0-5.749,0.594-8.404,1.776
			c-2.658,1.185-4.969,2.76-6.932,4.723c-1.965,1.964-3.524,4.261-4.68,6.889c-1.156,2.629-1.732,5.359-1.732,8.188
			c0,2.889,0.577,5.619,1.732,8.188c1.155,2.571,2.715,4.839,4.68,6.803c1.962,1.964,4.258,3.523,6.888,4.679
			c2.629,1.156,5.417,1.733,8.362,1.733c2.021,0,3.985-0.273,5.893-0.823c1.906-0.549,3.682-1.313,5.329-2.296
			c1.646-0.982,3.147-2.152,4.505-3.51c1.356-1.356,2.498-2.873,3.424-4.549l4.159,4.244c-2.427,3.814-5.647,6.89-9.663,9.229
			c-4.015,2.34-8.564,3.509-13.647,3.509c-3.813,0-7.395-0.722-10.744-2.165c-3.351-1.444-6.254-3.395-8.708-5.85
			c-2.456-2.454-4.406-5.342-5.849-8.665C135.196,55.995,134.476,52.455,134.476,48.701z"/>
		<rect x="159.084" y="47.487" fill="#EE5692" width="25.909" height="5.458"/>
		<path fill="none" stroke="#61BB94" stroke-width="1.25" stroke-miterlimit="10" d="M203.926,54.853
			c0.605,1.964,1.458,3.799,2.556,5.502c1.097,1.704,2.412,3.25,3.942,4.637c1.53,1.385,3.22,2.512,5.07,3.379l-3.813,4.765
			c-2.196-1.154-4.189-2.584-5.979-4.289c-1.791-1.704-3.307-3.624-4.549-5.761c-1.242-2.138-2.209-4.42-2.902-6.847
			c-0.693-2.426-1.04-4.938-1.04-7.538c0-3.754,0.722-7.293,2.166-10.615c1.444-3.321,3.394-6.209,5.85-8.665
			c2.454-2.455,5.356-4.405,8.708-5.849c3.35-1.443,6.933-2.167,10.744-2.167c3.813,0,7.395,0.724,10.744,2.167
			c3.35,1.444,6.253,3.394,8.708,5.849c2.456,2.456,4.405,5.343,5.849,8.665c1.443,3.322,2.167,6.86,2.167,10.615
			c0,2.657-0.361,5.213-1.083,7.667c-0.723,2.456-1.748,4.737-3.075,6.846c-1.33,2.109-2.917,4.017-4.767,5.719
			c-1.85,1.705-3.899,3.106-6.151,4.202l-3.207-4.852c1.79-0.867,3.467-1.979,5.027-3.336c1.56-1.356,2.887-2.889,3.985-4.593
			c1.096-1.703,1.964-3.538,2.6-5.502c0.636-1.963,0.954-3.986,0.954-6.066c0-2.83-0.578-5.559-1.734-8.188
			c-1.156-2.627-2.715-4.924-4.679-6.889c-1.964-1.963-4.26-3.538-6.889-4.723c-2.629-1.182-5.415-1.776-8.361-1.776
			c-2.947,0-5.748,0.594-8.406,1.776c-2.658,1.185-4.969,2.76-6.931,4.723c-1.966,1.964-3.525,4.261-4.679,6.889
			c-1.157,2.629-1.734,5.359-1.734,8.188C203.015,50.866,203.32,52.89,203.926,54.853z"/>
		<path fill="none" stroke="#61BB94" stroke-width="1.25" stroke-miterlimit="10" d="M263.149,75.735v-54.07h10.139l34.225,48.957
			V21.666h6.066v54.07h-9.532l-34.833-49.043v49.043H263.149z"/>
		<path fill="none" stroke="#61BB94" stroke-width="1.25" stroke-miterlimit="10" d="M325.71,75.735v-54.07h6.064v48.61h35.094v5.46
			H325.71z"/>
		<path fill="none" stroke="#61BB94" stroke-width="1.25" stroke-miterlimit="10" d="M378.738,75.735v-54.07h6.153v54.07H378.738z"
			/>
		<path fill="none" stroke="#61BB94" stroke-width="1.25" stroke-miterlimit="10" d="M397.021,75.735v-54.07h10.139l34.226,48.957
			V21.666h6.066v54.07h-9.531l-34.834-49.043v49.043H397.021z"/>
		<path fill="none" stroke="#61BB94" stroke-width="1.25" stroke-miterlimit="10" d="M459.581,75.735v-54.07h41.159v5.459h-35.094
			v43.151h35.094v5.46H459.581z M500.047,47.487v5.458h-25.91v-5.458H500.047z"/>
	</g>
</g>
</svg>
